<?xml version="1.0" encoding="UTF-8"?>
<svg id="Layer_1" xmlns="http://www.w3.org/2000/svg" viewBox="0 0 173.9 96.28">
  <defs>
    <style>
      .cls-1 {
        fill: #ea5045;
      }

      .cls-2 {
        fill: red;
      }
    </style>
  </defs>
  <path class="cls-1" d="M0,0v96.28h173.9V0H0ZM59.96,80.7l-6.25-16.91c-.62-1.66-1.14-3.31-1.57-4.97h-3.72v21.88h-8.82V21.85h8.82v22.15h3.67c.38-1.66.91-3.4,1.62-5.14l6.77-17h9.92l-8.34,21.19c-1.33,3.4-2,5.49-2,7.67s.67,4.27,2,7.76l8.63,22.23h-10.73,0ZM98.87,80.7h-16.73c-5.43,0-7.63-5.23-7.63-13.51v-31.82c0-8.28,2.19-13.51,7.63-13.51h16.5v14.39h-15.3v7.85h14.21v14.39h-14.21v7.85h15.54v14.39-.03ZM125.28,80.7l-1.48-9.94h-11.3l-1.53,9.94h-9.01l8.3-49.52c1.19-7.24,4.53-10.64,7.87-10.64s6.67,3.4,7.87,10.64l8.3,49.52h-9.02Z"/>
  <path class="cls-2" d="M118.17,35.01c-.19,0-.29.26-.38.87l-3.1,20.49h6.91l-3.05-20.49c-.1-.61-.19-.87-.38-.87Z"/>
</svg>